$MeshFormat
2.2 0 8
$EndMeshFormat
$PhysicalNames
3
1 1 "Base"
1 2 "Emitter"
2 3 "Bulk"
$EndPhysicalNames
$Nodes
515
1 0 0 0
2 1e-05 0 0
3 1e-05 1e-05 0
4 0 1e-05 0
5 4.999999999989635e-07 0 0
6 9.999999999980939e-07 0 0
7 1.499999999996933e-06 0 0
8 1.99999999999542e-06 0 0
9 2.499999999993867e-06 0 0
10 2.999999999992314e-06 0 0
11 3.499999999991009e-06 0 0
12 3.999999999989604e-06 0 0
13 4.499999999988214e-06 0 0
14 4.999999999986923e-06 0 0
15 5.499999999987949e-06 0 0
16 5.999999999989077e-06 0 0
17 6.499999999990665e-06 0 0
18 6.999999999991724e-06 0 0
19 7.499999999993049e-06 0 0
20 7.99999999999444e-06 0 0
21 8.499999999995863e-06 0 0
22 8.999999999997352e-06 0 0
23 9.499999999998181e-06 0 0
24 1e-05 4.999999999989635e-07 0
25 1e-05 9.999999999980939e-07 0
26 1e-05 1.499999999996933e-06 0
27 1e-05 1.99999999999542e-06 0
28 1e-05 2.499999999993867e-06 0
29 1e-05 2.999999999992314e-06 0
30 1e-05 3.499999999991009e-06 0
31 1e-05 3.999999999989604e-06 0
32 1e-05 4.499999999988214e-06 0
33 1e-05 4.999999999986923e-06 0
34 1e-05 5.499999999987949e-06 0
35 1e-05 5.999999999989077e-06 0
36 1e-05 6.499999999990665e-06 0
37 1e-05 6.999999999991724e-06 0
38 1e-05 7.499999999993049e-06 0
39 1e-05 7.99999999999444e-06 0
40 1e-05 8.499999999995863e-06 0
41 1e-05 8.999999999997352e-06 0
42 1e-05 9.499999999998181e-06 0
43 9.500000000000761e-06 1e-05 0
44 9.000000000001986e-06 1e-05 0
45 8.500000000002944e-06 1e-05 0
46 8.000000000004367e-06 1e-05 0
47 7.500000000006121e-06 1e-05 0
48 7.000000000007809e-06 1e-05 0
49 6.500000000009297e-06 1e-05 0
50 6.000000000010389e-06 1e-05 0
51 5.50000000001178e-06 1e-05 0
52 5.000000000013072e-06 1e-05 0
53 4.500000000012046e-06 1e-05 0
54 4.00000000001092e-06 1e-05 0
55 3.500000000009331e-06 1e-05 0
56 3.000000000008273e-06 1e-05 0
57 2.500000000006949e-06 1e-05 0
58 2.000000000005559e-06 1e-05 0
59 1.500000000004136e-06 1e-05 0
60 1.000000000002647e-06 1e-05 0
61 5.000000000018197e-07 1e-05 0
62 0 9.500000000000761e-06 0
63 0 9.000000000001986e-06 0
64 0 8.500000000002944e-06 0
65 0 8.000000000004367e-06 0
66 0 7.500000000006121e-06 0
67 0 7.000000000007809e-06 0
68 0 6.500000000009297e-06 0
69 0 6.000000000010389e-06 0
70 0 5.50000000001178e-06 0
71 0 5.000000000013072e-06 0
72 0 4.500000000012046e-06 0
73 0 4.00000000001092e-06 0
74 0 3.500000000009331e-06 0
75 0 3.000000000008273e-06 0
76 0 2.500000000006949e-06 0
77 0 2.000000000005559e-06 0
78 0 1.500000000004136e-06 0
79 0 1.000000000002647e-06 0
80 0 5.000000000018197e-07 0
81 4.750000000012557e-06 9.566987298107897e-06 0
82 5.249999999987436e-06 4.330127018921044e-07 0
83 9.495334358001719e-06 5.228117209035367e-06 0
84 3.399241969204315e-07 4.765497358317943e-06 0
85 6.750000000008553e-06 9.566987298109157e-06 0
86 4.387071268924965e-07 6.744848970423879e-06 0
87 9.566987298109063e-06 3.249999999991662e-06 0
88 3.249999999991802e-06 4.330127018900379e-07 0
89 9.577446495642908e-06 6.749999999990654e-06 0
90 6.749999999991195e-06 4.330127018931365e-07 0
91 3.717812400367658e-07 3.257265603128089e-06 0
92 3.331005480470609e-06 9.580563188069407e-06 0
93 9.581178244498634e-06 8.219652864861836e-06 0
94 1.750000000004847e-06 9.566987298106564e-06 0
95 8.24999999999159e-06 4.330127018926515e-07 0
96 4.33012701893362e-07 1.75000000000512e-06 0
97 4.442715103588052e-07 8.254600999510566e-06 0
98 8.250000000003656e-06 9.566987298109157e-06 0
99 1.732268599197206e-06 4.756066892178639e-07 0
100 9.555728489641221e-06 1.745399000489362e-06 0
101 5.728002740243211e-06 9.553550002035935e-06 0
102 4.486832848892902e-07 5.774570238382183e-06 0
103 9.604286056839692e-06 4.239049593081755e-06 0
104 4.249999999988972e-06 4.330127018910249e-07 0
105 7.693375672997993e-07 9.57815184779172e-06 0
106 9.575918000027739e-06 9.250814317317928e-06 0
107 4.218481522082809e-07 7.693375672998024e-07 0
108 9.230662432700199e-06 4.218481522082823e-07 0
109 5.749999999988017e-06 4.330127018921584e-07 0
110 5.499999999987078e-06 8.660254037836027e-07 0
111 5.999999999988281e-06 8.660254037841956e-07 0
112 5.749999999986785e-06 1.299038105675141e-06 0
113 5.249999999987022e-06 1.299038105674409e-06 0
114 5.49999999998607e-06 1.73205080756597e-06 0
115 4.999999999986979e-06 1.732050807565177e-06 0
116 5.249999999985942e-06 2.165063509456789e-06 0
117 4.749999999987162e-06 2.165063509456064e-06 0
118 4.999999999985941e-06 2.598076211347646e-06 0
119 5.499999999984719e-06 2.59807621134833e-06 0
120 5.249999999984718e-06 3.031088913239181e-06 0
121 4.749999999985924e-06 3.031088913238514e-06 0
122 4.999999999984711e-06 3.464101615130034e-06 0
123 4.499999999985927e-06 3.464101615129367e-06 0
124 4.749999999984738e-06 3.897114317020893e-06 0
125 5.249999999983527e-06 3.897114317021483e-06 0
126 4.999999999983522e-06 4.330127018912386e-06 0
127 4.499999999984753e-06 4.330127018911733e-06 0
128 4.749999999983564e-06 4.763139720803239e-06 0
129 5.249999999982334e-06 4.763139720803856e-06 0
130 4.99999999998235e-06 5.196152422694739e-06 0
131 5.499999999981181e-06 5.196152422695369e-06 0
132 4.499999999983641e-06 5.19615242269415e-06 0
133 5.249999999981162e-06 5.629165124586289e-06 0
134 5.749999999980018e-06 5.629165124586988e-06 0
135 5.999999999980078e-06 5.19615242269602e-06 0
136 6.249999999978924e-06 5.629165124587729e-06 0
137 5.499999999979968e-06 6.062177826477906e-06 0
138 6.499999999979024e-06 5.196152422696711e-06 0
139 6.749999999977911e-06 5.629165124588475e-06 0
140 6.999999999978008e-06 5.196152422697399e-06 0
141 7.249999999976988e-06 5.62916512458912e-06 0
142 6.999999999976828e-06 6.062177826480289e-06 0
143 6.749999999979093e-06 4.763139720805751e-06 0
144 7.249999999978028e-06 4.76313972080638e-06 0
145 6.999999999979132e-06 4.330127018914786e-06 0
146 7.499999999978012e-06 4.33012701891542e-06 0
147 7.249999999979124e-06 3.897114317023869e-06 0
148 7.499999999976047e-06 6.062177826480926e-06 0
149 7.249999999975844e-06 6.495190528372158e-06 0
150 4.249999999987113e-06 3.031088913237835e-06 0
151 3.999999999987126e-06 3.46410161512868e-06 0
152 3.749999999988316e-06 3.031088913237134e-06 0
153 3.49999999998829e-06 3.464101615128027e-06 0
154 3.249999999989448e-06 3.0310889132362e-06 0
155 2.999999999989372e-06 3.464101615127337e-06 0
156 2.74999999999048e-06 3.031088913235368e-06 0
157 2.499999999990374e-06 3.464101615126637e-06 0
158 2.749999999989307e-06 3.897114317018374e-06 0
159 4.999999999981111e-06 6.062177826477187e-06 0
160 5.249999999979911e-06 6.495190528368818e-06 0
161 4.749999999980891e-06 6.495190528368046e-06 0
162 4.999999999979802e-06 6.928203230259777e-06 0
163 4.499999999980675e-06 6.928203230258982e-06 0
164 4.749999999979658e-06 7.361215932150759e-06 0
165 5.249999999978634e-06 7.361215932151465e-06 0
166 4.249999999980525e-06 7.361215932150069e-06 0
167 3.999999999981474e-06 6.928203230258174e-06 0
168 3.749999999981279e-06 7.361215932149354e-06 0
169 3.499999999982265e-06 6.928203230257401e-06 0
170 3.249999999981958e-06 7.36121593214857e-06 0
171 2.999999999982967e-06 6.928203230256686e-06 0
172 2.749999999982683e-06 7.361215932147858e-06 0
173 2.49999999998373e-06 6.928203230255995e-06 0
174 2.749999999983968e-06 6.495190528364876e-06 0
175 5.999999999985116e-06 1.732050807566785e-06 0
176 3.499999999989511e-06 2.598076211345509e-06 0
177 2.249999999991414e-06 3.031088913234825e-06 0
178 2.499999999991682e-06 2.598076211343613e-06 0
179 2.249999999983443e-06 7.361215932147123e-06 0
180 2.499999999982446e-06 7.794228634039122e-06 0
181 3.999999999980486e-06 7.791876892016905e-06 0
182 2.249999999990299e-06 3.89711431701777e-06 0
183 2.499999999989273e-06 4.330127018909429e-06 0
184 2.249999999984835e-06 6.495190528364196e-06 0
185 7.749999999977989e-06 3.897114317024485e-06 0
186 7.499999999979078e-06 3.464101615132931e-06 0
187 7.749999999977061e-06 4.763139720806961e-06 0
188 7.749999999975089e-06 6.495190528372815e-06 0
189 7.499999999974854e-06 6.928203230264041e-06 0
190 6.999999999975652e-06 6.928203230263316e-06 0
191 7.249999999974627e-06 7.361215932155217e-06 0
192 7.749999999973905e-06 7.361215932155916e-06 0
193 7.499999999973651e-06 7.794228634047164e-06 0
194 6.999999999974268e-06 7.794228634046025e-06 0
195 4.999999999978574e-06 7.794228634042431e-06 0
196 1.999999999992308e-06 2.598076211342838e-06 0
197 2.249999999992573e-06 2.165063509451396e-06 0
198 7.99999999997532e-06 6.062177826481546e-06 0
199 5.749999999983512e-06 3.031088913239759e-06 0
200 2.499999999984937e-06 6.062177826473149e-06 0
201 2.999999999984416e-06 6.062177826473787e-06 0
202 7.999999999972995e-06 7.794228634047882e-06 0
203 2.019083235779561e-06 7.78321092271428e-06 0
204 1.999999999990279e-06 4.330127018908834e-06 0
205 7.999999999977955e-06 3.464101615133563e-06 0
206 7.749999999979101e-06 3.031088913241935e-06 0
207 1.999999999985953e-06 6.062177826472715e-06 0
208 7.249999999980102e-06 3.031088913241271e-06 0
209 7.499999999980162e-06 2.598076211350169e-06 0
210 7.999999999979337e-06 2.598076211350843e-06 0
211 7.749999999980302e-06 2.165063509458892e-06 0
212 2.99999999998827e-06 4.330127018910065e-06 0
213 5.499999999977483e-06 7.79422863404312e-06 0
214 4.499999999988206e-06 1.732050807564166e-06 0
215 7.749999999972741e-06 8.2272413359392e-06 0
216 2.253180539281495e-06 8.225405050709917e-06 0
217 2.75053008986494e-06 8.226935288394562e-06 0
218 5.249999999977462e-06 8.22488959390977e-06 0
219 5.74999999997635e-06 8.226849378930683e-06 0
220 1.749999999991293e-06 3.897114317017123e-06 0
221 8.242799644512336e-06 7.357058804992968e-06 0
222 1.760616763879999e-06 7.355086340653168e-06 0
223 8.249999999972143e-06 8.227241335939908e-06 0
224 1.816083625004339e-06 8.250769745170834e-06 0
225 8.253216960364071e-06 2.16692082240269e-06 0
226 1.756409301073132e-06 2.168763921154634e-06 0
227 8.249999999976824e-06 3.897114317025088e-06 0
228 8.000536160044659e-06 1.732360359724601e-06 0
229 7.500089359991711e-06 1.732102399592887e-06 0
230 5.749999999978765e-06 6.495190528369543e-06 0
231 6.499999999980213e-06 4.330127018914146e-06 0
232 6.999999999981024e-06 2.598076211349579e-06 0
233 2.749999999988221e-06 4.763139720800861e-06 0
234 3.249999999987193e-06 4.763139720801695e-06 0
235 2.00106821684011e-06 1.750910133407241e-06 0
236 2.500178036133922e-06 1.735194028534712e-06 0
237 2.500618438178324e-06 8.65989698236347e-06 0
238 8.499999999978699e-06 2.598076211351666e-06 0
239 1.499999999992642e-06 2.598076211342313e-06 0
240 1.499999999991284e-06 4.330127018908251e-06 0
241 1.749999999990087e-06 4.763139720799745e-06 0
242 8.50384248044519e-06 1.734269264695025e-06 0
243 1.538157671045419e-06 1.75257228054892e-06 0
244 7.750104253327205e-06 1.29909829637224e-06 0
245 3.749999999982331e-06 6.495190528366147e-06 0
246 5.749999999977509e-06 7.361215932152175e-06 0
247 1.749999999985833e-06 6.495190528363511e-06 0
248 1.49999999998701e-06 6.062177826471913e-06 0
249 3.74999999998714e-06 3.897114317019625e-06 0
250 4.4999999999821e-06 6.062177826476354e-06 0
251 4.771997259746327e-06 8.240286675002e-06 0
252 8.500445580911139e-06 3.463844358861821e-06 0
253 6.749999999981168e-06 3.031088913240703e-06 0
254 8.24999999997438e-06 6.495190528373456e-06 0
255 8.499999999974572e-06 6.062177826482199e-06 0
256 8.249999999975542e-06 5.629165124590366e-06 0
257 6.499999999982152e-06 2.598076211349233e-06 0
258 6.74999999998187e-06 2.165063509458226e-06 0
259 2.249999999986541e-06 5.629165124582002e-06 0
260 2.189726905952934e-06 1.267279850361624e-06 0
261 2.739984157009729e-06 1.294268933280754e-06 0
262 2.998360365518221e-06 1.731779815658462e-06 0
263 3.24805742041565e-06 1.298198078288643e-06 0
264 3.499402964315809e-06 1.731865637681142e-06 0
265 3.749576730781908e-06 1.29886723946094e-06 0
266 7.250032268875385e-06 1.299056736129171e-06 0
267 3.000191421327844e-06 8.657791778633223e-06 0
268 1.249999999992152e-06 3.897114317016523e-06 0
269 5.499999999976339e-06 8.660254037825662e-06 0
270 6.019669406879915e-06 8.648832574287764e-06 0
271 7.999999999971873e-06 8.657902295806412e-06 0
272 8.49999999997137e-06 8.657510338803096e-06 0
273 7.499999999972598e-06 8.659862080826319e-06 0
274 8.73732094904699e-06 5.621844871124814e-06 0
275 8.497886824820913e-06 5.194932380454936e-06 0
276 9.070278717292343e-06 6.037779547105844e-06 0
277 8.738259108630409e-06 3.903892923804373e-06 0
278 8.498043184751699e-06 4.331256786713103e-06 0
279 4.249999999988328e-06 2.165063509455061e-06 0
280 6.253278234459222e-06 8.225272432511717e-06 0
281 6.503824606871964e-06 8.655670567976093e-06 0
282 1.499999999992217e-06 3.464101615125343e-06 0
283 3.250120251852877e-06 8.226779951477529e-06 0
284 3.458032899111025e-06 8.663996218067991e-06 0
285 2.999999999986809e-06 5.19615242269198e-06 0
286 3.499999999986046e-06 5.1961524226929e-06 0
287 3.749999999986091e-06 4.7631397208023e-06 0
288 7.500022753690648e-06 8.660385406421258e-07 0
289 2.49999999999423e-06 8.660254037771771e-07 0
290 1.262633970122883e-06 6.493823810082682e-06 0
291 8.780834858227423e-06 8.200409844515901e-06 0
292 1.265093297421244e-06 4.771853840133458e-06 0
293 1.502515549561016e-06 5.19760477591304e-06 0
294 8.997100623215935e-06 8.683242495726044e-06 0
295 1.019542606499838e-06 5.208215296870282e-06 0
296 7.74999999997152e-06 9.093266739722404e-06 0
297 2.728137716808913e-06 9.106234150010015e-06 0
298 6.326370292271761e-06 9.092942210596837e-06 0
299 8.742996474072682e-06 9.133348524322387e-06 0
300 2.290101498940134e-06 9.129501730278643e-06 0
301 7.249999999972513e-06 9.093266739721615e-06 0
302 9.319534972845322e-07 6.042140086188003e-06 0
303 9.071175653777409e-06 3.478534433254401e-06 0
304 1.033318831687228e-06 3.472168796854068e-06 0
305 7.838657484747325e-07 3.875844351043698e-06 0
306 8.939580708932186e-06 4.37466857111046e-06 0
307 8.968984673611194e-06 5.201450370336792e-06 0
308 8.000021167828493e-06 8.66037625043739e-07 0
309 6.249999999990174e-06 4.330127018927726e-07 0
310 6.499999999989221e-06 8.660254037849564e-07 0
311 6.249999999986668e-06 1.299038105675988e-06 0
312 9.551087677968034e-06 5.766856726650113e-06 0
313 9.566987298106452e-06 6.249999999987992e-06 0
314 4.250000000011882e-06 9.56698729810775e-06 0
315 4.480330593108124e-06 9.145330733587193e-06 0
316 4.038036052444551e-06 9.128879196486777e-06 0
317 4.250000000013758e-06 8.700961894323949e-06 0
318 5.000000000012037e-06 9.133974596216369e-06 0
319 3.789509662392777e-06 9.579756850514416e-06 0
320 3.249627221632598e-06 2.164987482489193e-06 0
321 5.247381278611039e-06 9.567067435735995e-06 0
322 4.963977397780254e-07 5.235564419168164e-06 0
323 4.749999999988105e-06 4.330127018917195e-07 0
324 4.499999999988611e-06 8.660254037821343e-07 0
325 9.595282217351334e-06 4.713140930576363e-06 0
326 9.505568350108868e-06 8.721711104173623e-06 0
327 1.253222927886357e-06 9.568848056387744e-06 0
328 1.003760082532819e-06 9.136145480875383e-06 0
329 4.605799348803052e-07 9.185604831315178e-06 0
330 7.500000000022496e-07 8.700961894322411e-06 0
331 1.250000000002035e-06 8.700961894322031e-06 0
332 9.648333574802806e-07 8.27356470963683e-06 0
333 7.302266381521959e-07 7.790054844430924e-06 0
334 1.171477869357846e-06 7.802814864579574e-06 0
335 9.606391423279899e-07 7.401111004009071e-06 0
336 8.746777072113049e-06 4.311519436121331e-07 0
337 8.99623991746709e-06 8.638545191246175e-07 0
338 9.539420065119675e-06 8.143951686847919e-07 0
339 9.249999999997779e-06 1.299038105677624e-06 0
340 8.750013732980853e-06 1.299046034421528e-06 0
341 9.016446506221695e-06 1.737963513995638e-06 0
342 9.267299045864245e-06 2.211265336984015e-06 0
343 8.769301762285228e-06 2.176207387119068e-06 0
344 9.012130596875353e-06 2.623662209566577e-06 0
345 8.754586594275203e-06 3.034936881138326e-06 0
346 4.311519436123455e-07 1.253222927886567e-06 0
347 8.638545191247407e-07 1.003760082533011e-06 0
348 8.143951686848057e-07 4.605799348803392e-07 0
349 1.281934533375889e-06 7.541471995294097e-07 0
350 1.309428218729994e-06 1.3098533159535e-06 0
351 1.727984699590816e-06 1.003175992405732e-06 0
352 7.000637434455898e-06 8.657073057995262e-06 0
353 9.568730497696444e-06 7.249999999992223e-06 0
354 9.061954176876824e-06 6.965666703968538e-06 0
355 9.152780917807724e-06 7.503470738739543e-06 0
356 4.1244448716758e-07 2.75121093386111e-06 0
357 4.29584666105578e-07 2.250201822315445e-06 0
358 8.361797630431336e-07 1.989577967002129e-06 0
359 9.315017571521606e-07 2.543917403919481e-06 0
360 8.346002904361413e-07 1.509402382230998e-06 0
361 1.500000000004158e-06 9.133974596213884e-06 0
362 8.498841981727011e-06 8.653568216284419e-07 0
363 7.9996478041171e-06 5.195949082324541e-06 0
364 7.250106239053802e-06 8.226645846465052e-06 0
365 9.57125876081039e-06 7.745432890055905e-06 0
366 4.330127018909234e-07 6.250000000010053e-06 0
367 4.999999999987592e-06 8.66025403782888e-07 0
368 6.749999999976675e-06 6.495190528371385e-06 0
369 6.499999999976512e-06 6.928203230262272e-06 0
370 6.749999999975368e-06 7.361215932154101e-06 0
371 3.249999999983396e-06 6.495190528365437e-06 0
372 3.499999999983921e-06 6.06217782647441e-06 0
373 3.999999999983134e-06 6.062177826475407e-06 0
374 9.530557622474768e-06 2.692763243867985e-06 0
375 6.249999999980162e-06 4.763139720805061e-06 0
376 5.999999999981289e-06 4.330127018913492e-06 0
377 6.249999999981373e-06 3.897114317022608e-06 0
378 5.749999999982398e-06 3.897114317022076e-06 0
379 2.001769460633915e-06 6.92718163167307e-06 0
380 4.969125467529517e-07 7.300172609686973e-06 0
381 5.74999999998121e-06 4.763139720804472e-06 0
382 7.499941300667245e-06 5.196118532635673e-06 0
383 7.74993151744804e-06 5.629125586183695e-06 0
384 3.499999999987247e-06 4.330127018910794e-06 0
385 6.499999999977783e-06 6.062177826479471e-06 0
386 2.249999999989018e-06 4.763139720800064e-06 0
387 8.749999999973706e-06 6.495190528374188e-06 0
388 7.999673864106236e-06 4.330315313548737e-06 0
389 5.499999999978705e-06 6.928203230260485e-06 0
390 4.499999999987129e-06 2.598076211346905e-06 0
391 4.249999999985947e-06 3.897114317020221e-06 0
392 1.526447217894352e-06 6.913921839838697e-06 0
393 2.749999999991876e-06 2.165063509451762e-06 0
394 3.749999999990283e-06 4.330127018906645e-07 0
395 9.570259679949136e-06 3.734271206713202e-06 0
396 3.249999999988234e-06 3.897114317019002e-06 0
397 6.749999999980246e-06 3.897114317023246e-06 0
398 5.749999999984725e-06 2.165063509457464e-06 0
399 4.749999999982374e-06 5.629165124585605e-06 0
400 7.250014893316084e-06 2.16507210812929e-06 0
401 6.99999999998022e-06 3.464101615132316e-06 0
402 3.999999999988329e-06 2.59807621134621e-06 0
403 7.000022753688509e-06 1.732063944425817e-06 0
404 6.000546372390285e-06 7.793835157305913e-06 0
405 3.999999999986001e-06 4.330127018911122e-06 0
406 4.503666209940874e-06 7.793659158191518e-06 0
407 4.249999999984824e-06 4.763139720802694e-06 0
408 5.999999999977537e-06 6.928203230261307e-06 0
409 8.250838695850237e-06 3.031687365179692e-06 0
410 5.999999999978829e-06 6.062177826478657e-06 0
411 3.999999999984918e-06 5.196152422693417e-06 0
412 3.999829949175621e-06 1.731991468214853e-06 0
413 6.49999999998131e-06 3.46410161513172e-06 0
414 4.249999999981767e-06 6.495190528367184e-06 0
415 5.49999999998238e-06 4.33012701891296e-06 0
416 5.499999999983571e-06 3.464101615130617e-06 0
417 5.999999999982407e-06 3.464101615131176e-06 0
418 8.249208612958127e-06 4.76312216744281e-06 0
419 8.718857370081371e-06 4.78014245214345e-06 0
420 2.749999999985454e-06 5.629165124582375e-06 0
421 2.999937870264266e-06 2.598063540183607e-06 0
422 1.010927888098265e-06 4.325404386442482e-06 0
423 3.749810022515032e-06 2.165010086755328e-06 0
424 6.249999999982318e-06 3.031088913240254e-06 0
425 1.999999999991317e-06 3.464101615125956e-06 0
426 7.998799940730667e-06 6.927510375737414e-06 0
427 5.999999999983426e-06 2.598076211348836e-06 0
428 4.749999999988052e-06 1.299038105673627e-06 0
429 6.249999999977684e-06 6.495190528370439e-06 0
430 3.000108390274316e-06 7.794100728707998e-06 0
431 8.473863584469797e-06 7.776821527411472e-06 0
432 8.250559962725567e-06 1.299361400314263e-06 0
433 2.061620443604188e-06 8.706537500998995e-06 0
434 6.25009106204536e-06 7.361150352696745e-06 0
435 4.249999999983532e-06 5.629165124584746e-06 0
436 6.249999999983297e-06 2.165063509458122e-06 0
437 8.499999999973437e-06 6.928203230265293e-06 0
438 6.50065261146969e-06 7.793823974108473e-06 0
439 1.749999999992187e-06 3.031088913234162e-06 0
440 3.500038107008618e-06 7.793738462072213e-06 0
441 6.751416521047474e-06 8.225452418850437e-06 0
442 3.723010089674554e-06 8.213403156965624e-06 0
443 1.2531113610176e-06 3.01822549008061e-06 0
444 2.499999999987589e-06 5.19615242269118e-06 0
445 3.749999999984728e-06 5.629165124583836e-06 0
446 1.24999999998817e-06 5.62916512458168e-06 0
447 1.75041925824946e-06 5.629407183452012e-06 0
448 2.000489134627285e-06 5.196434824706339e-06 0
449 3.249999999985229e-06 5.629165124583214e-06 0
450 3.999929455121759e-06 8.659969260796667e-07 0
451 4.249889355840692e-06 1.298994991795898e-06 0
452 6.500003792268161e-06 1.73205299704368e-06 0
453 3.499593934382444e-06 8.658521752317372e-07 0
454 2.997939251964491e-06 8.650616657261387e-07 0
455 2.262843313386513e-06 4.309904044957394e-07 0
456 2.751797094220536e-06 4.325150293148488e-07 0
457 6.750009802465719e-06 1.29904376514065e-06 0
458 7.250003792272944e-06 4.330148913688071e-07 0
459 7.750002070036353e-06 4.330138970371371e-07 0
460 7.000011436214184e-06 8.660320064931411e-07 0
461 4.437858929358233e-07 4.272356713839006e-06 0
462 5.491847170992241e-06 9.158473987632448e-06 0
463 6.210998746901224e-06 9.551576669862284e-06 0
464 5.008016494063767e-06 8.63561597703233e-06 0
465 2.503647843148833e-06 9.501196824987558e-06 0
466 4.25150377115083e-06 8.300026147060562e-06 0
467 6.766166466716137e-06 9.013187974879794e-06 0
468 3.190881000058069e-06 9.123309043772309e-06 0
469 7.250000000006961e-06 9.581097750256637e-06 0
470 7.750000000003495e-06 9.598583331098528e-06 0
471 8.249635384921872e-06 9.064226766483776e-06 0
472 8.743730846623831e-06 9.656322573815704e-06 0
473 1.000084951902784e-06 6.933019933685556e-06 0
474 9.205062743318537e-06 9.546485080399796e-06 0
475 9.192071709836133e-06 7.959905619941651e-06 0
476 1.282703848086626e-06 2.133817963995523e-06 0
477 8.713150278793354e-06 7.367142141332815e-06 0
478 7.747038483208734e-07 3.097730307761298e-06 0
479 9.202875178678742e-06 6.499805254201e-06 0
480 8.13278449618724e-07 6.492766560078034e-06 0
481 9.192028828198718e-06 3.014822332827647e-06 0
482 9.205329238148752e-06 9.067120304387955e-06 0
483 9.206032313663551e-06 4.037778512087917e-06 0
484 3.477617481745856e-07 3.750000000010124e-06 0
485 9.164601275184057e-06 5.571209744850586e-06 0
486 8.293154256879711e-07 5.577931033038063e-06 0
487 3.339040557504099e-07 8.744334013178935e-06 0
488 1.250000000000826e-06 3.349364905414411e-07 0
489 9.666095944249575e-06 1.255665986821046e-06 0
490 9.159440215414109e-06 4.815424436802603e-06 0
491 8.405597845719644e-07 4.815424436803729e-06 0
492 3.26281317656153e-07 7.750000000005243e-06 0
493 9.670717031596047e-06 2.22988551626613e-06 0
494 2.094791281145267e-06 8.112976320909122e-07 0
495 1.753273142431854e-06 1.416758314535403e-06 0
496 1.355358837566579e-06 7.312315616730514e-06 0
497 1.606494639110289e-06 7.748633350630169e-06 0
498 3.660254037858478e-07 9.633974596214847e-06 0
499 9.633974596214845e-06 9.633974596214156e-06 0
500 3.660254037851274e-07 3.660254037858926e-07 0
501 9.63397459621411e-06 3.660254037851286e-07 0
502 3.614555729098612e-06 9.11123350521384e-06 0
503 2.868016441406549e-06 9.635124122317268e-06 0
504 2.131983558581617e-06 9.63512412233187e-06 0
505 4.62840579270229e-06 8.714527731874606e-06 0
506 5.868016441403465e-06 9.02512991549e-06 0
507 3.886526763543868e-06 8.65912521435856e-06 0
508 1.398862505158404e-06 8.280547622890553e-06 0
509 1.640687322050876e-06 8.740915237290917e-06 0
510 1.879869280110682e-06 9.20333209968251e-06 0
511 9.203628340745987e-06 8.344750005679998e-06 0
512 1.152716997681123e-06 1.742174844248914e-06 0
513 8.862540269826885e-06 7.761549974388277e-06 0
514 6.54341367187851e-07 3.516556982517812e-06 0
515 9.306659014968652e-06 4.465518663016633e-06 0
$EndNodes
$Elements
988
1 1 2 2 2 2 24
2 1 2 2 2 24 25
3 1 2 2 2 25 26
4 1 2 2 2 26 27
5 1 2 2 2 27 28
6 1 2 2 2 28 29
7 1 2 2 2 29 30
8 1 2 2 2 30 31
9 1 2 2 2 31 32
10 1 2 2 2 32 33
11 1 2 2 2 33 34
12 1 2 2 2 34 35
13 1 2 2 2 35 36
14 1 2 2 2 36 37
15 1 2 2 2 37 38
16 1 2 2 2 38 39
17 1 2 2 2 39 40
18 1 2 2 2 40 41
19 1 2 2 2 41 42
20 1 2 2 2 42 3
21 1 2 1 4 4 62
22 1 2 1 4 62 63
23 1 2 1 4 63 64
24 1 2 1 4 64 65
25 1 2 1 4 65 66
26 1 2 1 4 66 67
27 1 2 1 4 67 68
28 1 2 1 4 68 69
29 1 2 1 4 69 70
30 1 2 1 4 70 71
31 1 2 1 4 71 72
32 1 2 1 4 72 73
33 1 2 1 4 73 74
34 1 2 1 4 74 75
35 1 2 1 4 75 76
36 1 2 1 4 76 77
37 1 2 1 4 77 78
38 1 2 1 4 78 79
39 1 2 1 4 79 80
40 1 2 1 4 80 1
41 2 2 3 1 461 422 491
42 2 2 3 1 380 86 473
43 2 2 3 1 359 239 443
44 2 2 3 1 84 461 491
45 2 2 3 1 469 296 470
46 2 2 3 1 301 296 469
47 2 2 3 1 387 354 437
48 2 2 3 1 298 85 463
49 2 2 3 1 85 298 467
50 2 2 3 1 296 98 470
51 2 2 3 1 98 296 471
52 2 2 3 1 318 269 462
53 2 2 3 1 269 318 464
54 2 2 3 1 301 85 467
55 2 2 3 1 85 301 469
56 2 2 3 1 299 98 471
57 2 2 3 1 98 299 472
58 2 2 3 1 335 380 473
59 2 2 3 1 463 101 506
60 2 2 3 1 466 251 505
61 2 2 3 1 297 468 503
62 2 2 3 1 298 463 506
63 2 2 3 1 317 466 505
64 2 2 3 1 468 92 503
65 2 2 3 1 276 312 313
66 2 2 3 1 102 302 366
67 2 2 3 1 474 299 482
68 2 2 3 1 472 299 474
69 2 2 3 1 303 87 395
70 2 2 3 1 335 333 380
71 2 2 3 1 344 342 374
72 2 2 3 1 316 502 507
73 2 2 3 1 502 284 507
74 2 2 3 1 359 443 478
75 2 2 3 1 334 497 508
76 2 2 3 1 497 224 508
77 2 2 3 1 437 354 477
78 2 2 3 1 239 359 476
79 2 2 3 1 380 333 492
80 2 2 3 1 374 342 493
81 2 2 3 1 312 276 485
82 2 2 3 1 302 102 486
83 2 2 3 1 5 6 348
84 2 2 3 1 24 25 338
85 2 2 3 1 62 63 329
86 2 2 3 1 354 387 479
87 2 2 3 1 303 395 483
88 2 2 3 1 330 97 332
89 2 2 3 1 349 99 351
90 2 2 3 1 339 100 341
91 2 2 3 1 83 307 490
92 2 2 3 1 295 322 491
93 2 2 3 1 5 348 500
94 2 2 3 1 62 329 498
95 2 2 3 1 24 338 501
96 2 2 3 1 332 97 333
97 2 2 3 1 341 100 342
98 2 2 3 1 473 86 480
99 2 2 3 1 87 303 481
100 2 2 3 1 305 422 461
101 2 2 3 1 351 260 495
102 2 2 3 1 260 351 494
103 2 2 3 1 276 313 479
104 2 2 3 1 366 302 480
105 2 2 3 1 322 84 491
106 2 2 3 1 325 83 490
107 2 2 3 1 326 294 511
108 2 2 3 1 307 83 485
109 2 2 3 1 322 295 486
110 2 2 3 1 225 242 343
111 2 2 3 1 294 326 482
112 2 2 3 1 332 333 334
113 2 2 3 1 351 99 494
114 2 2 3 1 238 343 344
115 2 2 3 1 238 344 345
116 2 2 3 1 242 341 343
117 2 2 3 1 238 225 343
118 2 2 3 1 341 342 343
119 2 2 3 1 354 355 477
120 2 2 3 1 334 333 335
121 2 2 3 1 345 252 409
122 2 2 3 1 97 330 487
123 2 2 3 1 99 349 488
124 2 2 3 1 100 339 489
125 2 2 3 1 483 103 515
126 2 2 3 1 238 345 409
127 2 2 3 1 303 252 345
128 2 2 3 1 343 342 344
129 2 2 3 1 242 340 341
130 2 2 3 1 340 242 432
131 2 2 3 1 362 340 432
132 2 2 3 1 308 362 432
133 2 2 3 1 308 95 362
134 2 2 3 1 20 95 459
135 2 2 3 1 95 308 459
136 2 2 3 1 111 309 310
137 2 2 3 1 111 310 311
138 2 2 3 1 36 89 313
139 2 2 3 1 111 109 309
140 2 2 3 1 109 16 309
141 2 2 3 1 314 54 319
142 2 2 3 1 316 314 319
143 2 2 3 1 346 347 360
144 2 2 3 1 175 112 311
145 2 2 3 1 112 111 311
146 2 2 3 1 364 352 441
147 2 2 3 1 347 350 360
148 2 2 3 1 264 412 423
149 2 2 3 1 71 72 84
150 2 2 3 1 52 53 81
151 2 2 3 1 201 420 449
152 2 2 3 1 14 15 82
153 2 2 3 1 33 34 83
154 2 2 3 1 412 279 423
155 2 2 3 1 35 36 313
156 2 2 3 1 357 358 359
157 2 2 3 1 352 281 441
158 2 2 3 1 357 96 358
159 2 2 3 1 77 96 357
160 2 2 3 1 71 84 322
161 2 2 3 1 52 81 321
162 2 2 3 1 14 82 323
163 2 2 3 1 33 83 325
164 2 2 3 1 353 38 365
165 2 2 3 1 60 105 327
166 2 2 3 1 41 106 326
167 2 2 3 1 102 70 322
168 2 2 3 1 101 51 321
169 2 2 3 1 327 328 361
170 2 2 3 1 336 337 362
171 2 2 3 1 79 107 346
172 2 2 3 1 22 108 336
173 2 2 3 1 355 353 365
174 2 2 3 1 328 331 361
175 2 2 3 1 104 13 323
176 2 2 3 1 103 32 325
177 2 2 3 1 113 115 428
178 2 2 3 1 418 278 419
179 2 2 3 1 337 340 362
180 2 2 3 1 327 105 328
181 2 2 3 1 346 107 347
182 2 2 3 1 96 346 360
183 2 2 3 1 336 108 337
184 2 2 3 1 82 109 110
185 2 2 3 1 154 156 421
186 2 2 3 1 70 71 322
187 2 2 3 1 51 52 321
188 2 2 3 1 13 14 323
189 2 2 3 1 32 33 325
190 2 2 3 1 275 418 419
191 2 2 3 1 373 250 414
192 2 2 3 1 324 323 367
193 2 2 3 1 309 90 310
194 2 2 3 1 328 105 329
195 2 2 3 1 347 107 348
196 2 2 3 1 337 108 338
197 2 2 3 1 312 35 313
198 2 2 3 1 16 17 309
199 2 2 3 1 59 60 327
200 2 2 3 1 320 176 421
201 2 2 3 1 40 41 326
202 2 2 3 1 78 79 346
203 2 2 3 1 21 22 336
204 2 2 3 1 320 264 423
205 2 2 3 1 214 279 412
206 2 2 3 1 81 318 321
207 2 2 3 1 17 90 309
208 2 2 3 1 187 363 382
209 2 2 3 1 82 110 367
210 2 2 3 1 367 113 428
211 2 2 3 1 104 323 324
212 2 2 3 1 82 15 109
213 2 2 3 1 54 55 319
214 2 2 3 1 328 329 330
215 2 2 3 1 245 372 373
216 2 2 3 1 273 352 364
217 2 2 3 1 347 348 349
218 2 2 3 1 358 96 360
219 2 2 3 1 337 338 339
220 2 2 3 1 176 154 421
221 2 2 3 1 215 273 364
222 2 2 3 1 93 40 326
223 2 2 3 1 94 59 327
224 2 2 3 1 96 78 346
225 2 2 3 1 95 21 336
226 2 2 3 1 81 314 315
227 2 2 3 1 278 306 419
228 2 2 3 1 55 56 92
229 2 2 3 1 36 37 89
230 2 2 3 1 17 18 90
231 2 2 3 1 74 75 91
232 2 2 3 1 382 363 383
233 2 2 3 1 55 92 319
234 2 2 3 1 176 320 423
235 2 2 3 1 89 353 354
236 2 2 3 1 94 327 361
237 2 2 3 1 356 357 359
238 2 2 3 1 95 336 362
239 2 2 3 1 110 113 367
240 2 2 3 1 324 367 428
241 2 2 3 1 15 16 109
242 2 2 3 1 178 197 393
243 2 2 3 1 245 373 414
244 2 2 3 1 81 315 318
245 2 2 3 1 89 37 353
246 2 2 3 1 378 376 415
247 2 2 3 1 76 77 357
248 2 2 3 1 245 371 372
249 2 2 3 1 171 174 371
250 2 2 3 1 156 178 421
251 2 2 3 1 331 330 332
252 2 2 3 1 60 61 105
253 2 2 3 1 41 42 106
254 2 2 3 1 444 259 448
255 2 2 3 1 368 369 429
256 2 2 3 1 91 75 356
257 2 2 3 1 275 363 418
258 2 2 3 1 174 201 371
259 2 2 3 1 22 23 108
260 2 2 3 1 79 80 107
261 2 2 3 1 400 258 403
262 2 2 3 1 115 214 428
263 2 2 3 1 249 384 396
264 2 2 3 1 420 285 449
265 2 2 3 1 215 271 273
266 2 2 3 1 323 82 367
267 2 2 3 1 350 349 351
268 2 2 3 1 83 34 312
269 2 2 3 1 340 339 341
270 2 2 3 1 81 53 314
271 2 2 3 1 197 235 236
272 2 2 3 1 125 378 415
273 2 2 3 1 69 102 366
274 2 2 3 1 39 40 93
275 2 2 3 1 58 59 94
276 2 2 3 1 161 163 414
277 2 2 3 1 356 76 357
278 2 2 3 1 20 21 95
279 2 2 3 1 77 78 96
280 2 2 3 1 273 271 296
281 2 2 3 1 273 296 301
282 2 2 3 1 169 171 371
283 2 2 3 1 68 69 366
284 2 2 3 1 135 131 381
285 2 2 3 1 193 215 364
286 2 2 3 1 236 260 261
287 2 2 3 1 261 260 289
288 2 2 3 1 191 194 370
289 2 2 3 1 110 111 112
290 2 2 3 1 236 235 260
291 2 2 3 1 171 172 173
292 2 2 3 1 384 212 396
293 2 2 3 1 39 93 365
294 2 2 3 1 179 203 222
295 2 2 3 1 262 261 263
296 2 2 3 1 38 39 365
297 2 2 3 1 290 247 392
298 2 2 3 1 255 256 274
299 2 2 3 1 37 38 353
300 2 2 3 1 255 198 256
301 2 2 3 1 274 275 307
302 2 2 3 1 274 256 275
303 2 2 3 1 229 400 403
304 2 2 3 1 363 187 418
305 2 2 3 1 265 450 451
306 2 2 3 1 210 225 238
307 2 2 3 1 256 198 383
308 2 2 3 1 363 256 383
309 2 2 3 1 247 184 379
310 2 2 3 1 236 261 262
311 2 2 3 1 131 129 381
312 2 2 3 1 19 20 459
313 2 2 3 1 184 173 379
314 2 2 3 1 287 384 405
315 2 2 3 1 354 353 355
316 2 2 3 1 167 169 245
317 2 2 3 1 250 161 414
318 2 2 3 1 110 112 113
319 2 2 3 1 368 190 369
320 2 2 3 1 179 222 379
321 2 2 3 1 110 109 111
322 2 2 3 1 287 405 407
323 2 2 3 1 171 173 174
324 2 2 3 1 247 379 392
325 2 2 3 1 371 201 372
326 2 2 3 1 149 190 368
327 2 2 3 1 407 132 411
328 2 2 3 1 272 294 299
329 2 2 3 1 215 223 271
330 2 2 3 1 198 148 383
331 2 2 3 1 164 162 165
332 2 2 3 1 232 208 253
333 2 2 3 1 190 191 370
334 2 2 3 1 231 143 375
335 2 2 3 1 267 217 283
336 2 2 3 1 232 253 257
337 2 2 3 1 155 153 396
338 2 2 3 1 384 249 405
339 2 2 3 1 250 373 435
340 2 2 3 1 248 290 302
341 2 2 3 1 375 135 381
342 2 2 3 1 34 35 312
343 2 2 3 1 248 247 290
344 2 2 3 1 231 375 376
345 2 2 3 1 53 54 314
346 2 2 3 1 169 170 171
347 2 2 3 1 75 76 356
348 2 2 3 1 245 169 371
349 2 2 3 1 174 173 184
350 2 2 3 1 210 238 409
351 2 2 3 1 165 162 389
352 2 2 3 1 139 142 385
353 2 2 3 1 10 11 88
354 2 2 3 1 29 30 87
355 2 2 3 1 240 204 241
356 2 2 3 1 376 381 415
357 2 2 3 1 416 199 417
358 2 2 3 1 153 249 396
359 2 2 3 1 270 281 298
360 2 2 3 1 149 189 190
361 2 2 3 1 173 179 379
362 2 2 3 1 292 293 295
363 2 2 3 1 148 141 383
364 2 2 3 1 143 138 375
365 2 2 3 1 328 330 331
366 2 2 3 1 178 393 421
367 2 2 3 1 142 149 368
368 2 2 3 1 141 382 383
369 2 2 3 1 173 172 179
370 2 2 3 1 207 247 248
371 2 2 3 1 275 256 363
372 2 2 3 1 190 189 191
373 2 2 3 1 246 165 389
374 2 2 3 1 140 138 143
375 2 2 3 1 191 193 194
376 2 2 3 1 347 349 350
377 2 2 3 1 240 241 292
378 2 2 3 1 267 283 284
379 2 2 3 1 269 219 270
380 2 2 3 1 138 135 375
381 2 2 3 1 164 165 195
382 2 2 3 1 287 407 411
383 2 2 3 1 200 184 207
384 2 2 3 1 262 263 264
385 2 2 3 1 207 184 247
386 2 2 3 1 273 301 352
387 2 2 3 1 218 219 269
388 2 2 3 1 144 145 146
389 2 2 3 1 185 227 388
390 2 2 3 1 337 339 340
391 2 2 3 1 163 167 414
392 2 2 3 1 292 241 293
393 2 2 3 1 264 263 265
394 2 2 3 1 142 368 385
395 2 2 3 1 185 205 227
396 2 2 3 1 286 234 287
397 2 2 3 1 144 143 145
398 2 2 3 1 194 193 364
399 2 2 3 1 376 375 381
400 2 2 3 1 277 252 303
401 2 2 3 1 254 198 255
402 2 2 3 1 197 226 235
403 2 2 3 1 227 278 388
404 2 2 3 1 315 316 317
405 2 2 3 1 194 364 441
406 2 2 3 1 136 139 385
407 2 2 3 1 234 212 384
408 2 2 3 1 182 183 204
409 2 2 3 1 140 143 144
410 2 2 3 1 233 212 234
411 2 2 3 1 171 170 172
412 2 2 3 1 369 190 370
413 2 2 3 1 285 234 286
414 2 2 3 1 197 236 393
415 2 2 3 1 174 184 200
416 2 2 3 1 157 155 158
417 2 2 3 1 167 168 169
418 2 2 3 1 185 186 205
419 2 2 3 1 231 376 377
420 2 2 3 1 144 146 187
421 2 2 3 1 145 143 231
422 2 2 3 1 183 158 212
423 2 2 3 1 369 408 429
424 2 2 3 1 370 194 438
425 2 2 3 1 182 158 183
426 2 2 3 1 287 234 384
427 2 2 3 1 193 202 215
428 2 2 3 1 116 114 398
429 2 2 3 1 114 175 398
430 2 2 3 1 377 376 378
431 2 2 3 1 118 116 119
432 2 2 3 1 227 252 277
433 2 2 3 1 162 160 389
434 2 2 3 1 146 185 388
435 2 2 3 1 379 222 392
436 2 2 3 1 195 165 213
437 2 2 3 1 151 123 391
438 2 2 3 1 183 212 233
439 2 2 3 1 183 233 386
440 2 2 3 1 174 200 201
441 2 2 3 1 246 389 408
442 2 2 3 1 187 146 388
443 2 2 3 1 204 183 386
444 2 2 3 1 249 151 391
445 2 2 3 1 200 207 259
446 2 2 3 1 150 123 151
447 2 2 3 1 67 68 86
448 2 2 3 1 48 49 85
449 2 2 3 1 124 126 127
450 2 2 3 1 241 204 386
451 2 2 3 1 159 250 399
452 2 2 3 1 121 122 123
453 2 2 3 1 121 120 122
454 2 2 3 1 278 277 306
455 2 2 3 1 270 280 281
456 2 2 3 1 378 125 416
457 2 2 3 1 123 122 124
458 2 2 3 1 139 138 140
459 2 2 3 1 124 125 126
460 2 2 3 1 128 129 130
461 2 2 3 1 12 104 394
462 2 2 3 1 127 126 128
463 2 2 3 1 128 130 132
464 2 2 3 1 233 234 285
465 2 2 3 1 113 112 114
466 2 2 3 1 121 123 150
467 2 2 3 1 31 103 395
468 2 2 3 1 378 416 417
469 2 2 3 1 124 122 125
470 2 2 3 1 121 150 390
471 2 2 3 1 128 126 129
472 2 2 3 1 146 147 185
473 2 2 3 1 253 208 401
474 2 2 3 1 212 158 396
475 2 2 3 1 30 31 395
476 2 2 3 1 11 12 394
477 2 2 3 1 118 120 121
478 2 2 3 1 227 277 278
479 2 2 3 1 114 112 175
480 2 2 3 1 152 151 153
481 2 2 3 1 232 257 258
482 2 2 3 1 227 205 252
483 2 2 3 1 118 119 120
484 2 2 3 1 149 188 189
485 2 2 3 1 145 231 397
486 2 2 3 1 195 213 218
487 2 2 3 1 393 320 421
488 2 2 3 1 262 264 320
489 2 2 3 1 158 155 396
490 2 2 3 1 279 117 390
491 2 2 3 1 120 119 199
492 2 2 3 1 157 158 182
493 2 2 3 1 178 196 197
494 2 2 3 1 123 124 391
495 2 2 3 1 218 213 219
496 2 2 3 1 153 151 249
497 2 2 3 1 124 127 391
498 2 2 3 1 119 116 398
499 2 2 3 1 136 135 138
500 2 2 3 1 50 51 101
501 2 2 3 1 69 70 102
502 2 2 3 1 118 121 390
503 2 2 3 1 279 390 402
504 2 2 3 1 150 151 152
505 2 2 3 1 146 145 147
506 2 2 3 1 133 137 159
507 2 2 3 1 142 148 149
508 2 2 3 1 185 147 186
509 2 2 3 1 231 377 397
510 2 2 3 1 209 208 232
511 2 2 3 1 214 117 279
512 2 2 3 1 152 176 402
513 2 2 3 1 159 137 160
514 2 2 3 1 144 187 382
515 2 2 3 1 160 137 230
516 2 2 3 1 160 230 389
517 2 2 3 1 262 320 393
518 2 2 3 1 220 204 240
519 2 2 3 1 133 134 137
520 2 2 3 1 12 13 104
521 2 2 3 1 249 391 405
522 2 2 3 1 405 127 407
523 2 2 3 1 31 32 103
524 2 2 3 1 188 148 198
525 2 2 3 1 381 129 415
526 2 2 3 1 117 118 390
527 2 2 3 1 115 114 116
528 2 2 3 1 386 444 448
529 2 2 3 1 161 160 162
530 2 2 3 1 117 116 118
531 2 2 3 1 270 219 280
532 2 2 3 1 257 253 424
533 2 2 3 1 132 130 399
534 2 2 3 1 163 162 164
535 2 2 3 1 147 145 397
536 2 2 3 1 390 150 402
537 2 2 3 1 150 152 402
538 2 2 3 1 115 117 214
539 2 2 3 1 140 144 382
540 2 2 3 1 134 131 135
541 2 2 3 1 213 165 246
542 2 2 3 1 87 30 395
543 2 2 3 1 88 11 394
544 2 2 3 1 130 133 399
545 2 2 3 1 130 131 133
546 2 2 3 1 187 388 418
547 2 2 3 1 127 128 407
548 2 2 3 1 113 114 115
549 2 2 3 1 133 159 399
550 2 2 3 1 236 262 393
551 2 2 3 1 391 127 405
552 2 2 3 1 219 213 404
553 2 2 3 1 130 129 131
554 2 2 3 1 188 198 254
555 2 2 3 1 129 126 415
556 2 2 3 1 29 87 374
557 2 2 3 1 295 293 446
558 2 2 3 1 159 161 250
559 2 2 3 1 125 122 416
560 2 2 3 1 440 181 442
561 2 2 3 1 152 154 176
562 2 2 3 1 191 192 193
563 2 2 3 1 137 134 410
564 2 2 3 1 139 141 142
565 2 2 3 1 128 132 407
566 2 2 3 1 154 153 155
567 2 2 3 1 115 116 117
568 2 2 3 1 120 199 416
569 2 2 3 1 147 397 401
570 2 2 3 1 446 293 447
571 2 2 3 1 195 218 251
572 2 2 3 1 186 147 401
573 2 2 3 1 213 246 404
574 2 2 3 1 141 140 382
575 2 2 3 1 142 141 148
576 2 2 3 1 200 259 420
577 2 2 3 1 136 385 410
578 2 2 3 1 134 135 136
579 2 2 3 1 86 68 366
580 2 2 3 1 253 401 413
581 2 2 3 1 244 229 266
582 2 2 3 1 389 230 408
583 2 2 3 1 169 168 170
584 2 2 3 1 266 229 403
585 2 2 3 1 206 209 210
586 2 2 3 1 230 137 410
587 2 2 3 1 271 223 272
588 2 2 3 1 159 160 161
589 2 2 3 1 156 155 157
590 2 2 3 1 133 131 134
591 2 2 3 1 149 148 188
592 2 2 3 1 229 211 400
593 2 2 3 1 167 166 168
594 2 2 3 1 237 217 267
595 2 2 3 1 280 219 404
596 2 2 3 1 66 67 380
597 2 2 3 1 136 138 139
598 2 2 3 1 28 29 374
599 2 2 3 1 286 287 411
600 2 2 3 1 255 274 276
601 2 2 3 1 179 180 203
602 2 2 3 1 163 166 167
603 2 2 3 1 139 140 141
604 2 2 3 1 182 204 220
605 2 2 3 1 259 447 448
606 2 2 3 1 210 211 225
607 2 2 3 1 369 370 434
608 2 2 3 1 167 245 414
609 2 2 3 1 45 46 98
610 2 2 3 1 64 65 97
611 2 2 3 1 252 205 409
612 2 2 3 1 397 377 413
613 2 2 3 1 208 186 401
614 2 2 3 1 134 136 410
615 2 2 3 1 209 232 400
616 2 2 3 1 413 417 424
617 2 2 3 1 156 177 178
618 2 2 3 1 385 368 429
619 2 2 3 1 225 228 242
620 2 2 3 1 283 217 430
621 2 2 3 1 307 275 419
622 2 2 3 1 67 86 380
623 2 2 3 1 264 265 412
624 2 2 3 1 126 125 415
625 2 2 3 1 246 408 434
626 2 2 3 1 388 278 418
627 2 2 3 1 191 189 192
628 2 2 3 1 152 153 154
629 2 2 3 1 254 255 387
630 2 2 3 1 224 216 433
631 2 2 3 1 203 216 224
632 2 2 3 1 372 201 449
633 2 2 3 1 215 202 223
634 2 2 3 1 122 120 416
635 2 2 3 1 279 402 423
636 2 2 3 1 199 119 427
637 2 2 3 1 161 162 163
638 2 2 3 1 205 186 206
639 2 2 3 1 377 378 417
640 2 2 3 1 201 200 420
641 2 2 3 1 206 186 208
642 2 2 3 1 401 397 413
643 2 2 3 1 413 377 417
644 2 2 3 1 157 182 425
645 2 2 3 1 168 166 181
646 2 2 3 1 164 195 406
647 2 2 3 1 220 240 268
648 2 2 3 1 450 324 451
649 2 2 3 1 420 259 444
650 2 2 3 1 235 226 243
651 2 2 3 1 237 267 297
652 2 2 3 1 402 176 423
653 2 2 3 1 181 166 406
654 2 2 3 1 211 209 400
655 2 2 3 1 197 196 226
656 2 2 3 1 232 258 400
657 2 2 3 1 257 424 427
658 2 2 3 1 315 314 316
659 2 2 3 1 255 276 387
660 2 2 3 1 163 164 166
661 2 2 3 1 178 177 196
662 2 2 3 1 438 194 441
663 2 2 3 1 424 199 427
664 2 2 3 1 206 208 209
665 2 2 3 1 154 155 156
666 2 2 3 1 189 188 426
667 2 2 3 1 228 211 229
668 2 2 3 1 253 413 424
669 2 2 3 1 179 172 180
670 2 2 3 1 210 209 211
671 2 2 3 1 182 220 425
672 2 2 3 1 193 192 202
673 2 2 3 1 206 210 409
674 2 2 3 1 119 398 427
675 2 2 3 1 205 206 409
676 2 2 3 1 202 192 221
677 2 2 3 1 230 410 429
678 2 2 3 1 417 199 424
679 2 2 3 1 240 292 422
680 2 2 3 1 195 251 406
681 2 2 3 1 226 196 239
682 2 2 3 1 156 157 177
683 2 2 3 1 434 370 438
684 2 2 3 1 408 369 434
685 2 2 3 1 373 372 445
686 2 2 3 1 220 268 282
687 2 2 3 1 166 164 406
688 2 2 3 1 7 8 99
689 2 2 3 1 26 27 100
690 2 2 3 1 228 229 244
691 2 2 3 1 192 189 426
692 2 2 3 1 216 180 217
693 2 2 3 1 237 297 300
694 2 2 3 1 188 254 426
695 2 2 3 1 216 237 433
696 2 2 3 1 132 399 435
697 2 2 3 1 177 157 425
698 2 2 3 1 216 217 237
699 2 2 3 1 282 268 304
700 2 2 3 1 283 440 442
701 2 2 3 1 411 132 435
702 2 2 3 1 225 211 228
703 2 2 3 1 244 266 288
704 2 2 3 1 408 230 429
705 2 2 3 1 172 170 430
706 2 2 3 1 258 257 436
707 2 2 3 1 410 385 429
708 2 2 3 1 203 180 216
709 2 2 3 1 272 291 294
710 2 2 3 1 268 240 422
711 2 2 3 1 427 398 436
712 2 2 3 1 220 282 425
713 2 2 3 1 221 192 426
714 2 2 3 1 88 454 456
715 2 2 3 1 244 288 308
716 2 2 3 1 283 430 440
717 2 2 3 1 177 425 439
718 2 2 3 1 304 268 305
719 2 2 3 1 404 246 434
720 2 2 3 1 168 181 440
721 2 2 3 1 398 175 436
722 2 2 3 1 180 172 430
723 2 2 3 1 399 250 435
724 2 2 3 1 257 427 436
725 2 2 3 1 272 223 291
726 2 2 3 1 445 372 449
727 2 2 3 1 426 254 437
728 2 2 3 1 242 228 432
729 2 2 3 1 217 180 430
730 2 2 3 1 425 282 439
731 2 2 3 1 404 434 438
732 2 2 3 1 305 268 422
733 2 2 3 1 239 196 439
734 2 2 3 1 280 404 438
735 2 2 3 1 454 289 456
736 2 2 3 1 202 221 431
737 2 2 3 1 281 280 441
738 2 2 3 1 237 300 433
739 2 2 3 1 170 168 440
740 2 2 3 1 254 387 437
741 2 2 3 1 223 202 431
742 2 2 3 1 284 283 442
743 2 2 3 1 430 170 440
744 2 2 3 1 244 308 432
745 2 2 3 1 233 285 444
746 2 2 3 1 280 438 441
747 2 2 3 1 221 426 437
748 2 2 3 1 228 244 432
749 2 2 3 1 259 207 447
750 2 2 3 1 196 177 439
751 2 2 3 1 285 420 444
752 2 2 3 1 241 386 448
753 2 2 3 1 291 223 431
754 2 2 3 1 412 265 451
755 2 2 3 1 447 293 448
756 2 2 3 1 175 311 452
757 2 2 3 1 435 373 445
758 2 2 3 1 261 289 454
759 2 2 3 1 411 435 445
760 2 2 3 1 403 258 452
761 2 2 3 1 282 304 443
762 2 2 3 1 104 324 450
763 2 2 3 1 439 282 443
764 2 2 3 1 239 439 443
765 2 2 3 1 214 412 451
766 2 2 3 1 450 265 453
767 2 2 3 1 428 214 451
768 2 2 3 1 265 263 453
769 2 2 3 1 10 88 456
770 2 2 3 1 386 233 444
771 2 2 3 1 248 302 446
772 2 2 3 1 207 248 447
773 2 2 3 1 248 446 447
774 2 2 3 1 293 241 448
775 2 2 3 1 286 411 445
776 2 2 3 1 286 445 449
777 2 2 3 1 285 286 449
778 2 2 3 1 99 8 455
779 2 2 3 1 394 104 450
780 2 2 3 1 436 175 452
781 2 2 3 1 394 450 453
782 2 2 3 1 324 428 451
783 2 2 3 1 258 436 452
784 2 2 3 1 88 394 453
785 2 2 3 1 403 452 457
786 2 2 3 1 266 457 460
787 2 2 3 1 263 261 454
788 2 2 3 1 18 19 458
789 2 2 3 1 8 9 455
790 2 2 3 1 9 10 456
791 2 2 3 1 455 9 456
792 2 2 3 1 88 453 454
793 2 2 3 1 452 311 457
794 2 2 3 1 289 455 456
795 2 2 3 1 453 263 454
796 2 2 3 1 457 310 460
797 2 2 3 1 266 403 457
798 2 2 3 1 90 458 460
799 2 2 3 1 311 310 457
800 2 2 3 1 308 288 459
801 2 2 3 1 458 288 460
802 2 2 3 1 310 90 460
803 2 2 3 1 90 18 458
804 2 2 3 1 458 19 459
805 2 2 3 1 288 266 460
806 2 2 3 1 288 458 459
807 2 2 3 1 344 374 481
808 2 2 3 1 478 304 514
809 2 2 3 1 306 483 515
810 2 2 3 1 359 358 476
811 2 2 3 1 72 73 461
812 2 2 3 1 321 318 462
813 2 2 3 1 352 301 467
814 2 2 3 1 50 101 463
815 2 2 3 1 85 49 463
816 2 2 3 1 218 269 464
817 2 2 3 1 297 267 468
818 2 2 3 1 406 251 466
819 2 2 3 1 48 85 469
820 2 2 3 1 442 181 466
821 2 2 3 1 296 271 471
822 2 2 3 1 298 281 467
823 2 2 3 1 98 46 470
824 2 2 3 1 272 299 471
825 2 2 3 1 45 98 472
826 2 2 3 1 509 433 510
827 2 2 3 1 508 224 509
828 2 2 3 1 224 433 509
829 2 2 3 1 433 300 510
830 2 2 3 1 317 316 507
831 2 2 3 1 300 504 510
832 2 2 3 1 43 44 474
833 2 2 3 1 84 72 461
834 2 2 3 1 101 321 462
835 2 2 3 1 49 50 463
836 2 2 3 1 251 218 464
837 2 2 3 1 281 352 467
838 2 2 3 1 300 297 465
839 2 2 3 1 181 406 466
840 2 2 3 1 267 284 468
841 2 2 3 1 47 48 469
842 2 2 3 1 47 469 470
843 2 2 3 1 46 47 470
844 2 2 3 1 271 272 471
845 2 2 3 1 44 45 472
846 2 2 3 1 365 93 475
847 2 2 3 1 101 462 506
848 2 2 3 1 251 464 505
849 2 2 3 1 300 465 504
850 2 2 3 1 465 297 503
851 2 2 3 1 468 284 502
852 2 2 3 1 91 478 514
853 2 2 3 1 243 226 476
854 2 2 3 1 334 335 496
855 2 2 3 1 431 221 477
856 2 2 3 1 334 496 497
857 2 2 3 1 93 326 511
858 2 2 3 1 332 334 508
859 2 2 3 1 461 73 484
860 2 2 3 1 333 97 492
861 2 2 3 1 342 100 493
862 2 2 3 1 356 359 478
863 2 2 3 1 443 304 478
864 2 2 3 1 290 392 473
865 2 2 3 1 89 354 479
866 2 2 3 1 83 312 485
867 2 2 3 1 102 322 486
868 2 2 3 1 106 474 482
869 2 2 3 1 350 243 512
870 2 2 3 1 355 365 475
871 2 2 3 1 277 303 483
872 2 2 3 1 305 461 484
873 2 2 3 1 74 91 484
874 2 2 3 1 442 466 507
875 2 2 3 1 276 274 485
876 2 2 3 1 446 302 486
877 2 2 3 1 64 97 487
878 2 2 3 1 7 99 488
879 2 2 3 1 26 100 489
880 2 2 3 1 44 472 474
881 2 2 3 1 419 306 490
882 2 2 3 1 422 292 491
883 2 2 3 1 97 65 492
884 2 2 3 1 66 380 492
885 2 2 3 1 28 374 493
886 2 2 3 1 100 27 493
887 2 2 3 1 260 235 495
888 2 2 3 1 99 455 494
889 2 2 3 1 289 260 494
890 2 2 3 1 395 103 483
891 2 2 3 1 303 345 481
892 2 2 3 1 466 317 507
893 2 2 3 1 203 224 497
894 2 2 3 1 23 2 501
895 2 2 3 1 80 1 500
896 2 2 3 1 61 4 498
897 2 2 3 1 42 3 499
898 2 2 3 1 4 62 498
899 2 2 3 1 3 43 499
900 2 2 3 1 1 5 500
901 2 2 3 1 2 24 501
902 2 2 3 1 329 105 498
903 2 2 3 1 338 108 501
904 2 2 3 1 348 107 500
905 2 2 3 1 319 92 502
906 2 2 3 1 56 57 503
907 2 2 3 1 57 58 504
908 2 2 3 1 269 270 506
909 2 2 3 1 318 315 505
910 2 2 3 1 326 106 482
911 2 2 3 1 302 290 480
912 2 2 3 1 387 276 479
913 2 2 3 1 360 350 512
914 2 2 3 1 243 350 495
915 2 2 3 1 226 239 476
916 2 2 3 1 92 468 502
917 2 2 3 1 57 465 503
918 2 2 3 1 462 269 506
919 2 2 3 1 465 57 504
920 2 2 3 1 464 318 505
921 2 2 3 1 221 437 477
922 2 2 3 1 374 87 481
923 2 2 3 1 335 473 496
924 2 2 3 1 473 392 496
925 2 2 3 1 91 356 478
926 2 2 3 1 313 89 479
927 2 2 3 1 86 366 480
928 2 2 3 1 350 351 495
929 2 2 3 1 290 473 480
930 2 2 3 1 345 344 481
931 2 2 3 1 291 431 513
932 2 2 3 1 329 63 487
933 2 2 3 1 348 6 488
934 2 2 3 1 338 25 489
935 2 2 3 1 299 294 482
936 2 2 3 1 306 277 483
937 2 2 3 1 73 74 484
938 2 2 3 1 294 291 511
939 2 2 3 1 274 307 485
940 2 2 3 1 295 446 486
941 2 2 3 1 243 476 512
942 2 2 3 1 475 291 513
943 2 2 3 1 63 64 487
944 2 2 3 1 6 7 488
945 2 2 3 1 25 26 489
946 2 2 3 1 330 329 487
947 2 2 3 1 349 348 488
948 2 2 3 1 339 338 489
949 2 2 3 1 307 419 490
950 2 2 3 1 292 295 491
951 2 2 3 1 65 66 492
952 2 2 3 1 27 28 493
953 2 2 3 1 455 289 494
954 2 2 3 1 235 243 495
955 2 2 3 1 431 477 513
956 2 2 3 1 291 475 511
957 2 2 3 1 43 474 499
958 2 2 3 1 490 306 515
959 2 2 3 1 392 222 496
960 2 2 3 1 496 222 497
961 2 2 3 1 222 203 497
962 2 2 3 1 105 61 498
963 2 2 3 1 106 42 499
964 2 2 3 1 107 80 500
965 2 2 3 1 108 23 501
966 2 2 3 1 316 319 502
967 2 2 3 1 92 56 503
968 2 2 3 1 58 94 504
969 2 2 3 1 315 317 505
970 2 2 3 1 270 298 506
971 2 2 3 1 484 91 514
972 2 2 3 1 504 94 510
973 2 2 3 1 284 442 507
974 2 2 3 1 361 509 510
975 2 2 3 1 331 332 508
976 2 2 3 1 361 331 509
977 2 2 3 1 331 508 509
978 2 2 3 1 94 361 510
979 2 2 3 1 476 358 512
980 2 2 3 1 475 93 511
981 2 2 3 1 358 360 512
982 2 2 3 1 304 305 514
983 2 2 3 1 103 325 515
984 2 2 3 1 474 106 499
985 2 2 3 1 477 355 513
986 2 2 3 1 355 475 513
987 2 2 3 1 305 484 514
988 2 2 3 1 325 490 515
$EndElements
